<svg width="312" height="40" version="1.1" viewBox="0 0 82.55 10.58" xmlns="http://www.w3.org/2000/svg">
 <g transform="translate(-19.38 -23.02)">
  <g transform="matrix(.4 0 0 .4 13.33 12.65)">
   <text x="43.32523" y="48.824982" font-family="Anton" font-size="22.77px" stroke-width=".2372" style="line-height:1.25" xml:space="preserve"><tspan x="43.32523" y="48.824982" font-family="Anton" font-size="22.77px" stroke-width=".2372">DATA QUALITY WORKS</tspan></text>
   <path d="m34.75 28.15c-0.8577-1.737-6.601-2.214-9.753-2.214s-8.895 0.4771-9.753 2.214l-0.1123 0.3758v19.78c0 2.329 4.241 4.085 9.865 4.085s9.865-1.756 9.865-4.085v-19.78zm-0.7978 20.16c0 1.502-3.678 3.175-8.955 3.175-5.277 0-8.955-1.673-8.955-3.175l1.1e-4 -7.942c0.935 0.6814 3.24 1.217 6.148 1.431 0.09534-1.469 1.314-2.632 2.807-2.632s2.712 1.163 2.807 2.632c2.908-0.2139 5.213-0.7491 6.148-1.431zm-8.955-17.03c-0.9332 0-9.118-0.05856-9.118-2.085 0-2.026 8.185-2.085 9.118-2.085 0.9332 0 9.118 0.05856 9.118 2.085 4.31e-4 2.027-8.185 2.085-9.118 2.085z" stroke-width=".02761"/>
  </g>
 </g>
</svg>
