<svg width="312" height="40" shape-rendering="auto" version="1.1" viewBox="0 0 82.55 10.583333" xmlns="http://www.w3.org/2000/svg">
 <g transform="translate(-19.377189,-23.021176)">
  <g transform="matrix(.39999993 0 0 .39999993 13.32605 12.648783)">
   <g stroke-width=".237222" aria-label="DATA QUALITY WORKS">
    <path d="m44.192572 48.824982v-19.570805h5.381971q2.112758 0 3.180256 1.178696 1.067499 1.167576 1.067499 3.424891v9.162695q0 2.779944-0.978541 4.292233-0.96742 1.51229-3.402651 1.51229zm3.936401-3.45825h0.678306q1.078618 0 1.078618-1.045259v-10.096757q0-0.97854-0.266874-1.256534-0.255755-0.289114-1.056379-0.289114h-0.433671z"/>
    <path d="m54.889796 48.824982 1.890362-19.570805h6.638506l1.857002 19.570805h-3.702885l-0.277994-3.158017h-2.357393l-0.244635 3.158017zm4.325593-6.282673h1.779164l-0.856223-9.9522h-0.177916z"/>
    <path d="m67.866573 48.824982v-15.812321h-2.324033v-3.758484h8.562227v3.758484h-2.324033v15.812321z"/>
    <path d="m74.371643 48.824982 1.890362-19.570805h6.638506l1.857002 19.570805h-3.702885l-0.277994-3.158017h-2.357393l-0.244635 3.158017zm4.325593-6.282673h1.779164l-0.856223-9.9522h-0.177916z"/>
    <path d="m99.947128 50.90438-3.113537-2.046039q-0.533749 0.144557-1.100858 0.144557-2.290674 0-3.502729-1.356613-1.200936-1.356612-1.200936-3.95864v-9.462929q0-2.524189 1.234295-3.836322 1.245415-1.312134 3.591688-1.312134 2.346272 0 3.580567 1.312134 1.245412 1.312133 1.245412 3.836322v9.462929q0 2.424111-1.089735 3.814083l1.679085 1.067499zm-4.092077-5.504289q0.422551 0 0.600468-0.311354 0.189036-0.311354 0.233515-0.767264 0.0556-0.455911 0.0556-0.878463v-9.151575q0-0.622707-0.177917-1.111977-0.166796-0.50039-0.733905-0.50039-0.578228 0-0.756145 0.48927-0.177916 0.47815-0.177916 1.111977v9.240534q0 0.389192 0.04448 0.833983 0.0556 0.433671 0.255755 0.745025 0.200156 0.300234 0.656067 0.300234z"/>
    <path d="m107.06378 49.002898q-2.44635 0-3.6028-1.367732-1.15646-1.378852-1.15646-4.047599v-14.33339h3.80296v14.177714q0 0.48927 0.0556 0.94518 0.0556 0.444792 0.25576 0.733906 0.20015 0.289114 0.64494 0.289114 0.45591 0 0.65607-0.277995 0.20016-0.289114 0.24464-0.745025 0.0556-0.45591 0.0556-0.94518v-14.177714h3.80297v14.33339q0 2.668747-1.15646 4.047599-1.15646 1.367732-3.60281 1.367732z"/>
    <path d="m112.79047 48.824982 1.89036-19.570805h6.63851l1.857 19.570805h-3.70289l-0.27799-3.158017h-2.35739l-0.24464 3.158017zm4.32559-6.282673h1.77916l-0.85622-9.9522h-0.17791z"/>
    <path d="m124.37727 48.824982v-19.570805h3.91416v16.234872h4.02536v3.335933z"/>
    <path d="m133.25085 48.824982v-19.570805h3.78073v19.570805z"/>
    <path d="m140.26743 48.824982v-15.812321h-2.32403v-3.758484h8.56223v3.758484h-2.32404v15.812321z"/>
    <path d="m149.96388 48.824982v-6.43835l-3.12466-13.132455h3.8808l1.08974 6.627386 1.08974-6.627386h3.86968l-3.11354 13.132455v6.43835z"/>
    <path d="m164.63086 48.824982-2.10163-19.570805h3.8252l1.07862 12.35407 1.10086-12.35407h3.64728l1.04526 12.35407 1.04526-12.35407h3.86968l-2.135 19.570805h-4.69254l-0.97854-9.41845-0.93406 9.41845z"/>
    <path d="m183.97927 49.002898q-2.34627 0-3.59169-1.412211-1.23429-1.423332-1.23429-4.103198v-9.296132q0-2.513069 1.22317-3.814083 1.2343-1.301014 3.60281-1.301014t3.59169 1.301014q1.23429 1.301014 1.23429 3.814083v9.296132q0 2.679866-1.24541 4.103198-1.2343 1.412211-3.58057 1.412211zm0.0334-3.602807q0.88958 0 0.88958-1.723565v-9.551887q0-1.445571-0.86734-1.445571-0.97854 0-0.97854 1.47893v9.540767q0 0.911822 0.2224 1.312134 0.22239 0.389192 0.7339 0.389192z"/>
    <path d="m190.38427 48.824982v-19.570805h6.00468q1.50117 0 2.26843 0.689426 0.76727 0.678306 1.02302 1.912601 0.26688 1.223176 0.26688 2.880022 0 1.601248-0.41144 2.557549-0.40031 0.9563-1.52341 1.323253 0.92295 0.189036 1.2899 0.922941 0.37807 0.722786 0.37807 1.879242v7.405771h-3.85856v-7.661526q0-0.856222-0.35583-1.056378-0.34472-0.211276-1.1231-0.211276v8.92918zm3.98088-12.320712h0.94518q0.81174 0 0.81174-1.768044 0-1.145337-0.17791-1.50117-0.17792-0.355832-0.66719-0.355832h-0.91182z"/>
    <path d="m201.23716 48.824982v-19.570805h3.86968v7.839442l1.82364-7.839442h3.9364l-2.19059 8.962539 2.6465 10.608266h-4.05871l-2.135-9.474049v9.474049z"/>
    <path d="m216.63805 49.002898q-2.67987 0-3.86968-1.334373-1.1787-1.334373-1.1787-4.247754v-1.912602h3.86968v2.446351q0 0.678306 0.20016 1.067498 0.21127 0.378073 0.72278 0.378073 0.53375 0 0.73391-0.311354 0.21127-0.311354 0.21127-1.023019 0-0.900702-0.17791-1.50117-0.17792-0.611588-0.62271-1.156457-0.43367-0.555988-1.21206-1.289894l-1.75692-1.667966q-1.9682-1.857002-1.9682-4.247754 0-2.50195 1.15646-3.814083 1.16757-1.312134 3.36929-1.312134 2.69098 0 3.81408 1.434451 1.13422 1.434452 1.13422 4.358952h-3.98088v-1.345492q0-0.400312-0.23352-0.622708-0.22239-0.222395-0.61158-0.222395-0.46704 0-0.68943 0.266874-0.21128 0.255755-0.21128 0.667187t0.2224 0.889582q0.22239 0.47815 0.87846 1.100858l2.25732 2.168356q0.6783 0.644947 1.24541 1.367732 0.56711 0.711666 0.91182 1.667967 0.34472 0.94518 0.34472 2.312913 0 2.757704-1.02302 4.325593-1.0119 1.556768-3.53609 1.556768z"/>
   </g>
   <path d="m34.74583 28.145228c-0.857711-1.737234-6.600836-2.21424-9.752716-2.21424s-8.895447 0.477117-9.752993 2.21424l-0.11227 0.375845v19.783183c0 2.328791 4.241067 4.085075 9.865362 4.085075s9.865362-1.756008 9.865362-4.085075v-19.783183zm-0.797771 20.158669c0 1.501588-3.677838 3.175071-8.955083 3.175071-5.27697 0-8.955083-1.673483-8.955083-3.175071l1.1e-4 -7.942097c0.935045 0.681398 3.239954 1.216963 6.147767 1.430936 0.09534-1.46923 1.313817-2.632494 2.807316-2.632494s2.711981 1.163264 2.807316 2.632494c2.908089-0.213865 5.212639-0.749124 6.147767-1.430936zm-8.955359-17.034951c-0.933223 0-9.117702-0.05856-9.117702-2.085056 0-2.026468 8.184506-2.085055 9.117702-2.085055 0.933222 0 9.117701 0.05856 9.117701 2.085055 4.31e-4 2.02658-8.184506 2.085056-9.117701 2.085056z" stroke-width=".0276093"/>
  </g>
 </g>
</svg>
