<svg width="32" height="32" version="1.1" viewBox="0 0 8.467 8.467" xmlns="http://www.w3.org/2000/svg">
 <g transform="translate(-91.63 -89.27)">
  <path d="m98.79 90.2c-0.2573-0.5212-1.98-0.6643-2.926-0.6643s-2.669 0.1431-2.926 0.6643l-0.03368 0.1128v5.935c0 0.6986 1.272 1.226 2.96 1.226s2.96-0.5268 2.96-1.226v-5.935zm-0.2393 6.048c0 0.4505-1.103 0.9525-2.687 0.9525-1.583 0-2.687-0.502-2.687-0.9525l3.3e-5 -2.383c0.2805 0.2044 0.972 0.3651 1.844 0.4293 0.0286-0.4408 0.3941-0.7897 0.8422-0.7897 0.448 0 0.8136 0.349 0.8422 0.7897 0.8724-0.06416 1.564-0.2247 1.844-0.4293zm-2.687-5.11c-0.28 0-2.735-0.01757-2.735-0.6255 0-0.6079 2.455-0.6255 2.735-0.6255 0.28 0 2.735 0.01757 2.735 0.6255 1.3e-4 0.608-2.455 0.6255-2.735 0.6255z" stroke-width=".008283"/>
 </g>
</svg>
